HIERARCHY
ROOT Hips
{
  OFFSET 0.000000 95.000000 0.000000
  CHANNELS 6 Xposition Yposition Zposition Zrotation Xrotation Yrotation
  JOINT Spine
  {
    OFFSET 0.000000 10.000000 0.000000
    CHANNELS 3 Zrotation Xrotation Yrotation
    JOINT Spine1
    {
      OFFSET 0.000000 12.000000 0.000000
      CHANNELS 3 Zrotation Xrotation Yrotation
      JOINT Spine2
      {
        OFFSET 0.000000 12.000000 0.000000
        CHANNELS 3 Zrotation Xrotation Yrotation
        JOINT Neck
        {
          OFFSET 0.000000 10.000000 0.000000
          CHANNELS 3 Zrotation Xrotation Yrotation
          JOINT Head
          {
            OFFSET 0.000000 8.000000 0.000000
            CHANNELS 3 Zrotation Xrotation Yrotation
            End Site
            {
              OFFSET 0.000000 10.000000 0.000000
            }
          }
        }
        JOINT LeftShoulder
        {
          OFFSET 6.000000 8.000000 0.000000
          CHANNELS 3 Zrotation Xrotation Yrotation
          JOINT LeftArm
          {
            OFFSET 12.000000 0.000000 0.000000
            CHANNELS 3 Zrotation Xrotation Yrotation
            JOINT LeftForeArm
            {
              OFFSET 24.000000 0.000000 0.000000
              CHANNELS 3 Zrotation Xrotation Yrotation
              JOINT LeftHand
              {
                OFFSET 22.000000 0.000000 0.000000
                CHANNELS 3 Zrotation Xrotation Yrotation
                JOINT LeftHandThumb1
                {
                  OFFSET 1.800000 -1.400000 0.500000
                  CHANNELS 3 Zrotation Xrotation Yrotation
                  JOINT LeftHandThumb2
                  {
                    OFFSET 2.400000 0.000000 0.000000
                    CHANNELS 3 Zrotation Xrotation Yrotation
                    JOINT LeftHandThumb3
                    {
                      OFFSET 1.900000 0.000000 0.000000
                      CHANNELS 3 Zrotation Xrotation Yrotation
                      End Site
                      {
                        OFFSET 1.600000 0.000000 0.000000
                      }
                    }
                  }
                }
                JOINT LeftHandIndex1
                {
                  OFFSET 6.600000 1.200000 0.300000
                  CHANNELS 3 Zrotation Xrotation Yrotation
                  JOINT LeftHandIndex2
                  {
                    OFFSET 2.000000 0.000000 0.000000
                    CHANNELS 3 Zrotation Xrotation Yrotation
                    JOINT LeftHandIndex3
                    {
                      OFFSET 1.200000 0.000000 0.000000
                      CHANNELS 3 Zrotation Xrotation Yrotation
                      End Site
                      {
                        OFFSET 1.000000 0.000000 0.000000
                      }
                    }
                  }
                }
                JOINT LeftHandMiddle1
                {
                  OFFSET 7.200000 0.000000 0.300000
                  CHANNELS 3 Zrotation Xrotation Yrotation
                  JOINT LeftHandMiddle2
                  {
                    OFFSET 3.000000 0.000000 0.000000
                    CHANNELS 3 Zrotation Xrotation Yrotation
                    JOINT LeftHandMiddle3
                    {
                      OFFSET 2.000000 0.000000 0.000000
                      CHANNELS 3 Zrotation Xrotation Yrotation
                      End Site
                      {
                        OFFSET 1.600000 0.000000 0.000000
                      }
                    }
                  }
                }
                JOINT LeftHandRing1
                {
                  OFFSET 7.100000 -1.000000 0.400000
                  CHANNELS 3 Zrotation Xrotation Yrotation
                  JOINT LeftHandRing2
                  {
                    OFFSET 2.600000 0.000000 0.000000
                    CHANNELS 3 Zrotation Xrotation Yrotation
                    JOINT LeftHandRing3
                    {
                      OFFSET 1.600000 0.000000 0.000000
                      CHANNELS 3 Zrotation Xrotation Yrotation
                      End Site
                      {
                        OFFSET 1.300000 0.000000 0.000000
                      }
                    }
                  }
                }
                JOINT LeftHandPinky1
                {
                  OFFSET 6.500000 -2.000000 0.500000
                  CHANNELS 3 Zrotation Xrotation Yrotation
                  JOINT LeftHandPinky2
                  {
                    OFFSET 1.900000 0.000000 0.000000
                    CHANNELS 3 Zrotation Xrotation Yrotation
                    JOINT LeftHandPinky3
                    {
                      OFFSET 1.400000 0.000000 0.000000
                      CHANNELS 3 Zrotation Xrotation Yrotation
                      End Site
                      {
                        OFFSET 1.300000 0.000000 0.000000
                      }
                    }
                  }
                }
              }
            }
          }
        }
        JOINT RightShoulder
        {
          OFFSET -6.000000 8.000000 0.000000
          CHANNELS 3 Zrotation Xrotation Yrotation
          JOINT RightArm
          {
            OFFSET -12.000000 0.000000 0.000000
            CHANNELS 3 Zrotation Xrotation Yrotation
            JOINT RightForeArm
            {
              OFFSET -24.000000 0.000000 0.000000
              CHANNELS 3 Zrotation Xrotation Yrotation
              JOINT RightHand
              {
                OFFSET -22.000000 0.000000 0.000000
                CHANNELS 3 Zrotation Xrotation Yrotation
                JOINT RightHandThumb1
                {
                  OFFSET -1.800000 -1.400000 0.500000
                  CHANNELS 3 Zrotation Xrotation Yrotation
                  JOINT RightHandThumb2
                  {
                    OFFSET -2.400000 0.000000 0.000000
                    CHANNELS 3 Zrotation Xrotation Yrotation
                    JOINT RightHandThumb3
                    {
                      OFFSET -1.900000 0.000000 0.000000
                      CHANNELS 3 Zrotation Xrotation Yrotation
                      End Site
                      {
                        OFFSET -1.600000 0.000000 0.000000
                      }
                    }
                  }
                }
                JOINT RightHandIndex1
                {
                  OFFSET -6.600000 1.200000 0.300000
                  CHANNELS 3 Zrotation Xrotation Yrotation
                  JOINT RightHandIndex2
                  {
                    OFFSET -2.000000 0.000000 0.000000
                    CHANNELS 3 Zrotation Xrotation Yrotation
                    JOINT RightHandIndex3
                    {
                      OFFSET -1.200000 0.000000 0.000000
                      CHANNELS 3 Zrotation Xrotation Yrotation
                      End Site
                      {
                        OFFSET -1.000000 0.000000 0.000000
                      }
                    }
                  }
                }
                JOINT RightHandMiddle1
                {
                  OFFSET -7.200000 0.000000 0.300000
                  CHANNELS 3 Zrotation Xrotation Yrotation
                  JOINT RightHandMiddle2
                  {
                    OFFSET -3.000000 0.000000 0.000000
                    CHANNELS 3 Zrotation Xrotation Yrotation
                    JOINT RightHandMiddle3
                    {
                      OFFSET -2.000000 0.000000 0.000000
                      CHANNELS 3 Zrotation Xrotation Yrotation
                      End Site
                      {
                        OFFSET -1.600000 0.000000 0.000000
                      }
                    }
                  }
                }
                JOINT RightHandRing1
                {
                  OFFSET -7.100000 -1.000000 0.400000
                  CHANNELS 3 Zrotation Xrotation Yrotation
                  JOINT RightHandRing2
                  {
                    OFFSET -2.600000 0.000000 0.000000
                    CHANNELS 3 Zrotation Xrotation Yrotation
                    JOINT RightHandRing3
                    {
                      OFFSET -1.600000 0.000000 0.000000
                      CHANNELS 3 Zrotation Xrotation Yrotation
                      End Site
                      {
                        OFFSET -1.300000 0.000000 0.000000
                      }
                    }
                  }
                }
                JOINT RightHandPinky1
                {
                  OFFSET -6.500000 -2.000000 0.500000
                  CHANNELS 3 Zrotation Xrotation Yrotation
                  JOINT RightHandPinky2
                  {
                    OFFSET -1.900000 0.000000 0.000000
                    CHANNELS 3 Zrotation Xrotation Yrotation
                    JOINT RightHandPinky3
                    {
                      OFFSET -1.400000 0.000000 0.000000
                      CHANNELS 3 Zrotation Xrotation Yrotation
                      End Site
                      {
                        OFFSET -1.300000 0.000000 0.000000
                      }
                    }
                  }
                }
              }
            }
          }
        }
      }
    }
  }
  JOINT LeftUpLeg
  {
    OFFSET 10.000000 -5.000000 0.000000
    CHANNELS 3 Zrotation Xrotation Yrotation
    JOINT LeftLeg
    {
      OFFSET 0.000000 -42.000000 0.000000
      CHANNELS 3 Zrotation Xrotation Yrotation
      JOINT LeftFoot
      {
        OFFSET 0.000000 -42.000000 4.000000
        CHANNELS 3 Zrotation Xrotation Yrotation
        End Site
        {
          OFFSET 0.000000 0.000000 12.000000
        }
      }
    }
  }
  JOINT RightUpLeg
  {
    OFFSET -10.000000 -5.000000 0.000000
    CHANNELS 3 Zrotation Xrotation Yrotation
    JOINT RightLeg
    {
      OFFSET 0.000000 -42.000000 0.000000
      CHANNELS 3 Zrotation Xrotation Yrotation
      JOINT RightFoot
      {
        OFFSET 0.000000 -42.000000 4.000000
        CHANNELS 3 Zrotation Xrotation Yrotation
        End Site
        {
          OFFSET 0.000000 0.000000 12.000000
        }
      }
    }
  }
}
MOTION
Frames: 9
Frame Time: 0.033333
0.0000 95.0000 0.0000 0.0000 0.0000 0.0000 0.0000 0.0000 0.0000 0.0000 0.0000 0.0000 0.0000 0.0000 0.0000 0.0000 0.0000 0.0000 0.0000 0.0000 0.0000 0.0000 0.0000 0.0000 -71.2467 16.9113 23.4414 -3.8329 4.9372 -5.3457 -3.4497 11.9089 -20.7906 58.9284 -11.5445 7.0775 14.4709 0.0000 0.0000 5.0896 0.0000 0.0000 -8.0725 0.8926 -4.8347 32.8440 0.0000 0.0000 7.1396 0.0000 0.0000 3.6807 -0.0608 -2.8800 49.1829 0.0000 0.0000 20.5405 0.0000 0.0000 9.4060 -0.7128 -3.2609 64.4978 0.0000 0.0000 25.5302 0.0000 0.0000 17.0986 -1.2860 -0.1304 55.1091 0.0000 0.0000 18.4654 0.0000 0.0000 0.0000 0.0000 0.0000 54.3527 -18.1850 34.6265 -2.5111 75.9399 79.5204 -58.2367 31.4666 -40.6962 -49.3325 -14.0246 15.7648 15.6852 0.0000 0.0000 8.9171 0.0000 0.0000 14.1403 10.0733 115.0356 11.7072 0.0000 0.0000 5.3820 0.0000 0.0000 1.3203 -1.9431 116.3852 45.4918 0.0000 0.0000 57.9872 0.0000 0.0000 -6.3047 -14.7531 116.7198 50.1855 0.0000 0.0000 91.3169 0.0000 0.0000 -19.4253 -23.0576 118.1099 38.9212 0.0000 0.0000 124.7555 0.0000 0.0000 0.0000 0.0000 0.0000 0.0000 0.0000 0.0000 0.0000 0.0000 0.0000 0.0000 0.0000 0.0000 0.0000 0.0000 0.0000 0.0000 0.0000 0.0000
0.0000 95.0000 0.0000 0.0000 0.0000 0.0000 0.0000 0.0000 0.0000 0.0000 0.0000 0.0000 0.0000 0.0000 0.0000 0.0000 0.0000 0.0000 0.0000 0.0000 0.0000 0.0000 0.0000 0.0000 -71.2659 16.9435 23.4773 -3.7750 5.0281 -5.4907 -3.4612 11.8268 -20.6921 58.9284 -11.5445 7.0775 14.4709 0.0000 0.0000 5.0896 0.0000 0.0000 -8.0725 0.8926 -4.8347 32.8440 0.0000 0.0000 7.1396 0.0000 0.0000 3.6807 -0.0608 -2.8800 49.1829 0.0000 0.0000 20.5405 0.0000 0.0000 9.4060 -0.7128 -3.2609 64.4978 0.0000 0.0000 25.5302 0.0000 0.0000 17.0986 -1.2860 -0.1304 55.1091 0.0000 0.0000 18.4654 0.0000 0.0000 0.0000 0.0000 0.0000 54.1971 -18.3150 34.9729 -8.2329 77.7646 74.4540 -61.2903 29.9688 -49.3009 -53.4994 -14.1735 15.7325 15.5926 0.0000 0.0000 8.7128 0.0000 0.0000 5.6699 24.1014 120.1894 11.8694 0.0000 0.0000 4.9022 0.0000 0.0000 -5.1317 9.2744 126.9325 61.5749 0.0000 0.0000 104.5560 0.0000 0.0000 -13.6601 -4.9287 126.5283 78.1670 0.0000 0.0000 93.4806 0.0000 0.0000 -25.4348 -17.0380 127.4649 58.6262 0.0000 0.0000 113.4319 0.0000 0.0000 0.0000 0.0000 0.0000 0.0000 0.0000 0.0000 0.0000 0.0000 0.0000 0.0000 0.0000 0.0000 0.0000 0.0000 0.0000 0.0000 0.0000 0.0000
0.0000 95.0000 0.0000 0.0000 0.0000 0.0000 0.0000 0.0000 0.0000 0.0000 0.0000 0.0000 0.0000 0.0000 0.0000 0.0000 0.0000 0.0000 0.0000 0.0000 0.0000 0.0000 0.0000 0.0000 -71.5970 16.8334 23.1889 -3.6808 5.1587 -5.6966 -3.2015 11.5390 -20.2417 58.9284 -11.5445 7.0775 14.4709 0.0000 0.0000 5.0896 0.0000 0.0000 -8.0725 0.8926 -4.8347 32.8440 0.0000 0.0000 7.1396 0.0000 0.0000 3.6807 -0.0608 -2.8800 49.1829 0.0000 0.0000 20.5405 0.0000 0.0000 9.4060 -0.7128 -3.2609 64.4978 0.0000 0.0000 25.5302 0.0000 0.0000 17.0986 -1.2860 -0.1304 55.1091 0.0000 0.0000 18.4654 0.0000 0.0000 0.0000 0.0000 0.0000 54.1902 -18.3001 34.9505 -7.8148 77.3453 74.6361 -44.1489 40.4345 -23.8599 -51.0446 -15.9184 25.4755 35.0254 0.0000 0.0000 22.0813 0.0000 0.0000 20.4124 1.1081 106.8282 8.3329 0.0000 0.0000 4.5971 0.0000 0.0000 11.1765 -13.6258 106.1388 16.9655 0.0000 0.0000 4.4875 0.0000 0.0000 5.1886 -24.5366 102.9982 19.4004 0.0000 0.0000 3.9224 0.0000 0.0000 -4.3451 -32.9329 100.3291 16.7303 0.0000 0.0000 7.8553 0.0000 0.0000 0.0000 0.0000 0.0000 0.0000 0.0000 0.0000 0.0000 0.0000 0.0000 0.0000 0.0000 0.0000 0.0000 0.0000 0.0000 0.0000 0.0000 0.0000
0.0000 95.0000 0.0000 0.0000 0.0000 0.0000 0.0000 0.0000 0.0000 0.0000 0.0000 0.0000 0.0000 0.0000 0.0000 0.0000 0.0000 0.0000 0.0000 0.0000 0.0000 0.0000 0.0000 0.0000 -71.6823 16.4332 22.6099 -4.0282 4.8334 -5.1638 -2.8818 11.5667 -20.1650 58.9284 -11.5445 7.0775 14.4709 0.0000 0.0000 5.0896 0.0000 0.0000 -8.0725 0.8926 -4.8347 32.8440 0.0000 0.0000 7.1396 0.0000 0.0000 3.6807 -0.0608 -2.8800 49.1829 0.0000 0.0000 20.5405 0.0000 0.0000 9.4060 -0.7128 -3.2609 64.4978 0.0000 0.0000 25.5302 0.0000 0.0000 17.0986 -1.2860 -0.1304 55.1091 0.0000 0.0000 18.4654 0.0000 0.0000 0.0000 0.0000 0.0000 54.3467 -18.0517 34.3880 -0.9887 74.5002 80.4362 -12.9366 39.3595 14.1040 -40.2843 -15.0606 20.6000 37.2996 0.0000 0.0000 19.6744 0.0000 0.0000 40.8393 -13.9724 77.2580 10.4760 0.0000 0.0000 4.3094 0.0000 0.0000 31.3115 -23.2823 77.4123 82.0303 0.0000 0.0000 80.0428 0.0000 0.0000 24.1855 -28.8163 74.9700 115.7195 0.0000 0.0000 49.1640 0.0000 0.0000 12.6757 -33.6212 74.4223 119.6969 0.0000 0.0000 46.7813 0.0000 0.0000 0.0000 0.0000 0.0000 0.0000 0.0000 0.0000 0.0000 0.0000 0.0000 0.0000 0.0000 0.0000 0.0000 0.0000 0.0000 0.0000 0.0000 0.0000
0.0000 95.0000 0.0000 0.0000 0.0000 0.0000 0.0000 0.0000 0.0000 0.0000 0.0000 0.0000 0.0000 0.0000 0.0000 0.0000 0.0000 0.0000 0.0000 0.0000 0.0000 0.0000 0.0000 0.0000 -71.9105 15.9147 21.8154 -4.1892 4.4936 -4.6777 -2.6108 11.4107 -19.8790 58.9284 -11.5445 7.0775 14.4709 0.0000 0.0000 5.0896 0.0000 0.0000 -8.0725 0.8926 -4.8347 32.8440 0.0000 0.0000 7.1396 0.0000 0.0000 3.6807 -0.0608 -2.8800 49.1829 0.0000 0.0000 20.5405 0.0000 0.0000 9.4060 -0.7128 -3.2609 64.4978 0.0000 0.0000 25.5302 0.0000 0.0000 17.0986 -1.2860 -0.1304 55.1091 0.0000 0.0000 18.4654 0.0000 0.0000 0.0000 0.0000 0.0000 54.7983 -17.8305 33.6759 3.4541 71.9668 83.8603 -11.0998 48.7819 20.2450 -42.7823 -14.9210 20.1205 25.6764 0.0000 0.0000 11.9563 0.0000 0.0000 35.4633 -9.5361 74.9276 12.2295 0.0000 0.0000 4.2029 0.0000 0.0000 26.9181 -19.9295 77.3384 91.9471 0.0000 0.0000 73.3678 0.0000 0.0000 19.8999 -25.7828 75.0741 125.7707 0.0000 0.0000 41.1332 0.0000 0.0000 8.3269 -30.9002 75.0305 131.7722 0.0000 0.0000 36.4210 0.0000 0.0000 0.0000 0.0000 0.0000 0.0000 0.0000 0.0000 0.0000 0.0000 0.0000 0.0000 0.0000 0.0000 0.0000 0.0000 0.0000 0.0000 0.0000 0.0000
0.0000 95.0000 0.0000 0.0000 0.0000 0.0000 0.0000 0.0000 0.0000 0.0000 0.0000 0.0000 0.0000 0.0000 0.0000 0.0000 0.0000 0.0000 0.0000 0.0000 0.0000 0.0000 0.0000 0.0000 -72.1715 15.7447 21.4843 -4.2484 4.2762 -4.3514 -2.3623 11.4826 -19.8826 58.9284 -11.5445 7.0775 14.4709 0.0000 0.0000 5.0896 0.0000 0.0000 -8.0725 0.8926 -4.8347 32.8440 0.0000 0.0000 7.1396 0.0000 0.0000 3.6807 -0.0608 -2.8800 49.1829 0.0000 0.0000 20.5405 0.0000 0.0000 9.4060 -0.7128 -3.2609 64.4978 0.0000 0.0000 25.5302 0.0000 0.0000 17.0986 -1.2860 -0.1304 55.1091 0.0000 0.0000 18.4654 0.0000 0.0000 0.0000 0.0000 0.0000 55.4143 -17.6814 32.9946 6.7350 69.8041 86.1187 -1.2348 40.4754 27.3852 -37.0132 -14.9898 20.3157 18.9793 0.0000 0.0000 11.5982 0.0000 0.0000 48.6941 -14.1485 60.5994 9.7716 0.0000 0.0000 3.1172 0.0000 0.0000 39.4128 -20.3031 57.8935 116.1194 0.0000 0.0000 52.6580 0.0000 0.0000 32.3586 -23.9348 55.3240 133.0350 0.0000 0.0000 38.4271 0.0000 0.0000 21.1684 -27.8422 55.0884 142.8151 0.0000 0.0000 31.2591 0.0000 0.0000 0.0000 0.0000 0.0000 0.0000 0.0000 0.0000 0.0000 0.0000 0.0000 0.0000 0.0000 0.0000 0.0000 0.0000 0.0000 0.0000 0.0000 0.0000
0.0000 95.0000 0.0000 0.0000 0.0000 0.0000 0.0000 0.0000 0.0000 0.0000 0.0000 0.0000 0.0000 0.0000 0.0000 0.0000 0.0000 0.0000 0.0000 0.0000 0.0000 0.0000 0.0000 0.0000 -72.3353 15.6025 21.2300 -4.3343 4.2517 -4.2985 -2.1280 11.3850 -19.6835 58.9284 -11.5445 7.0775 14.4709 0.0000 0.0000 5.0896 0.0000 0.0000 -8.0725 0.8926 -4.8347 32.8440 0.0000 0.0000 7.1396 0.0000 0.0000 3.6807 -0.0608 -2.8800 49.1829 0.0000 0.0000 20.5405 0.0000 0.0000 9.4060 -0.7128 -3.2609 64.4978 0.0000 0.0000 25.5302 0.0000 0.0000 17.0986 -1.2860 -0.1304 55.1091 0.0000 0.0000 18.4654 0.0000 0.0000 0.0000 0.0000 0.0000 56.0441 -17.6038 32.4441 7.7221 68.5075 86.1931 -12.1623 41.6933 18.6656 -39.0914 -14.7697 19.5930 20.0568 0.0000 0.0000 21.8614 0.0000 0.0000 49.0468 -16.0370 65.7748 10.2659 0.0000 0.0000 4.0440 0.0000 0.0000 40.3233 -23.5144 63.8658 81.3172 0.0000 0.0000 81.6091 0.0000 0.0000 33.2268 -26.9518 60.1187 115.6417 0.0000 0.0000 52.7217 0.0000 0.0000 21.7614 -31.0198 59.9251 130.3895 0.0000 0.0000 42.1167 0.0000 0.0000 0.0000 0.0000 0.0000 0.0000 0.0000 0.0000 0.0000 0.0000 0.0000 0.0000 0.0000 0.0000 0.0000 0.0000 0.0000 0.0000 0.0000 0.0000
0.0000 95.0000 0.0000 0.0000 0.0000 0.0000 0.0000 0.0000 0.0000 0.0000 0.0000 0.0000 0.0000 0.0000 0.0000 0.0000 0.0000 0.0000 0.0000 0.0000 0.0000 0.0000 0.0000 0.0000 -72.4897 15.5497 21.1006 -4.0178 3.9658 -3.9862 -2.3666 11.5209 -19.9311 58.9284 -11.5445 7.0775 14.4709 0.0000 0.0000 5.0896 0.0000 0.0000 -8.0725 0.8926 -4.8347 32.8440 0.0000 0.0000 7.1396 0.0000 0.0000 3.6807 -0.0608 -2.8800 49.1829 0.0000 0.0000 20.5405 0.0000 0.0000 9.4060 -0.7128 -3.2609 64.4978 0.0000 0.0000 25.5302 0.0000 0.0000 17.0986 -1.2860 -0.1304 55.1091 0.0000 0.0000 18.4654 0.0000 0.0000 0.0000 0.0000 0.0000 56.6570 -17.5505 31.9579 8.1741 68.3451 86.3659 -14.6576 37.6192 17.5276 -38.0828 -14.5408 18.8553 18.8468 0.0000 0.0000 19.7288 0.0000 0.0000 52.7182 -17.0881 62.5229 11.1173 0.0000 0.0000 4.4029 0.0000 0.0000 44.0558 -24.1450 60.4963 86.4883 0.0000 0.0000 80.1912 0.0000 0.0000 37.3240 -27.5216 56.9840 114.1404 0.0000 0.0000 54.8232 0.0000 0.0000 25.7952 -31.3454 56.7841 129.8664 0.0000 0.0000 41.9888 0.0000 0.0000 0.0000 0.0000 0.0000 0.0000 0.0000 0.0000 0.0000 0.0000 0.0000 0.0000 0.0000 0.0000 0.0000 0.0000 0.0000 0.0000 0.0000 0.0000
0.0000 95.0000 0.0000 0.0000 0.0000 0.0000 0.0000 0.0000 0.0000 0.0000 0.0000 0.0000 0.0000 0.0000 0.0000 0.0000 0.0000 0.0000 0.0000 0.0000 0.0000 0.0000 0.0000 0.0000 -72.3496 15.4819 21.0622 -4.3771 4.0263 -3.9770 -2.1378 11.5067 -19.8357 58.9284 -11.5445 7.0775 14.4709 0.0000 0.0000 5.0896 0.0000 0.0000 -8.0725 0.8926 -4.8347 32.8440 0.0000 0.0000 7.1396 0.0000 0.0000 3.6807 -0.0608 -2.8800 49.1829 0.0000 0.0000 20.5405 0.0000 0.0000 9.4060 -0.7128 -3.2609 64.4978 0.0000 0.0000 25.5302 0.0000 0.0000 17.0986 -1.2860 -0.1304 55.1091 0.0000 0.0000 18.4654 0.0000 0.0000 0.0000 0.0000 0.0000 57.1466 -17.5784 31.6983 7.8919 68.3348 85.7199 -19.9373 32.4876 17.2434 -34.6336 -13.7494 16.6260 21.4836 0.0000 0.0000 11.3781 0.0000 0.0000 58.0543 -19.2521 60.2295 12.5959 0.0000 0.0000 3.2678 0.0000 0.0000 51.8079 -26.3370 56.2171 117.4401 0.0000 0.0000 57.1397 0.0000 0.0000 45.3554 -29.3924 52.8634 133.4721 0.0000 0.0000 41.3461 0.0000 0.0000 34.3167 -32.7951 52.0690 139.9452 0.0000 0.0000 33.5912 0.0000 0.0000 0.0000 0.0000 0.0000 0.0000 0.0000 0.0000 0.0000 0.0000 0.0000 0.0000 0.0000 0.0000 0.0000 0.0000 0.0000 0.0000 0.0000 0.0000
